<svg width="2109" height="1487" xmlns="http://www.w3.org/2000/svg" xmlns:xlink="http://www.w3.org/1999/xlink" xml:space="preserve" overflow="hidden"><defs><clipPath id="clip0"><rect x="733" y="623" width="2109" height="1487"/></clipPath><clipPath id="clip1"><rect x="1402" y="669" width="204" height="205"/></clipPath><clipPath id="clip2"><rect x="1402" y="669" width="204" height="205"/></clipPath><clipPath id="clip3"><rect x="1402" y="669" width="204" height="205"/></clipPath></defs><g clip-path="url(#clip0)" transform="translate(-733 -623)"><path d="M1364.5 1965.5 1725.67 1965.5 1746.5 1986.33 1746.5 2090.5 1364.5 2090.5Z" stroke="#000000" stroke-width="4.58333" stroke-miterlimit="8" fill="#FFF2CC" fill-rule="evenodd"/><text font-family="Meiryo UI,Meiryo UI_MSFontService,sans-serif" font-weight="400" font-size="64" transform="matrix(1 0 0 1 1476.01 2058)">Mino</text><path d="M1339.5 1944.5 1700.67 1944.5 1721.5 1965.33 1721.5 2069.5 1339.5 2069.5Z" stroke="#000000" stroke-width="4.58333" stroke-miterlimit="8" fill="#FFF2CC" fill-rule="evenodd"/><text font-family="Meiryo UI,Meiryo UI_MSFontService,sans-serif" font-weight="400" font-size="64" transform="matrix(1 0 0 1 1451.22 2037)">Mino</text><path d="M2457.5 1443.5 2818.67 1443.5 2839.5 1464.33 2839.5 1568.5 2457.5 1568.5Z" stroke="#000000" stroke-width="4.58333" stroke-miterlimit="8" fill="#FFF2CC" fill-rule="evenodd"/><text font-family="Meiryo UI,Meiryo UI_MSFontService,sans-serif" font-weight="400" font-size="64" transform="matrix(1 0 0 1 2545.91 1536)">Action</text><path d="M2425.5 1415.5 2786.83 1415.5 2807.5 1436.17 2807.5 1539.5 2425.5 1539.5Z" stroke="#000000" stroke-width="4.58333" stroke-miterlimit="8" fill="#FFF2CC" fill-rule="evenodd"/><text font-family="Meiryo UI,Meiryo UI_MSFontService,sans-serif" font-weight="400" font-size="64" transform="matrix(1 0 0 1 2513.7 1508)">Action</text><rect x="735.5" y="1564.5" width="382" height="160" stroke="#000000" stroke-width="4.58333" stroke-miterlimit="8" fill="#E2F0D9"/><text font-family="Meiryo UI,Meiryo UI_MSFontService,sans-serif" font-weight="400" font-size="64" transform="matrix(1 0 0 1 869.377 1631)">T4s</text><text font-family="Meiryo UI,Meiryo UI_MSFontService,sans-serif" font-weight="400" font-size="64" transform="matrix(1 0 0 1 773.127 1708)">Controller</text><path d="M735.5 1395.5 1096.67 1395.5 1117.5 1416.33 1117.5 1520.5 735.5 1520.5Z" stroke="#000000" stroke-width="4.58333" stroke-miterlimit="8" fill="#FFF2CC" fill-rule="evenodd"/><text font-family="Meiryo UI,Meiryo UI_MSFontService,sans-serif" font-weight="400" font-size="64" transform="matrix(1 0 0 1 864.185 1488)">T4s</text><rect x="1317.5" y="1564.5" width="382" height="160" stroke="#000000" stroke-width="4.58333" stroke-miterlimit="8" fill="#E2F0D9"/><text font-family="Meiryo UI,Meiryo UI_MSFontService,sans-serif" font-weight="400" font-size="64" transform="matrix(1 0 0 1 1416.27 1631)">Board</text><text font-family="Meiryo UI,Meiryo UI_MSFontService,sans-serif" font-weight="400" font-size="64" transform="matrix(1 0 0 1 1355.54 1708)">Controller</text><path d="M1317.5 1395.5 1678.67 1395.5 1699.5 1416.33 1699.5 1520.5 1317.5 1520.5Z" stroke="#000000" stroke-width="4.58333" stroke-miterlimit="8" fill="#FFF2CC" fill-rule="evenodd"/><text font-family="Meiryo UI,Meiryo UI_MSFontService,sans-serif" font-weight="400" font-size="64" transform="matrix(1 0 0 1 1411.07 1488)">Board</text><rect x="1876.5" y="1564.5" width="382" height="160" stroke="#000000" stroke-width="4.58333" stroke-miterlimit="8" fill="#E2F0D9"/><text font-family="Meiryo UI,Meiryo UI_MSFontService,sans-serif" font-weight="400" font-size="64" transform="matrix(1 0 0 1 1993.44 1631)">Cron</text><text font-family="Meiryo UI,Meiryo UI_MSFontService,sans-serif" font-weight="400" font-size="64" transform="matrix(1 0 0 1 1914.38 1708)">Controller</text><path d="M1876.5 1395.5 2237.67 1395.5 2258.5 1416.33 2258.5 1520.5 1876.5 1520.5Z" stroke="#000000" stroke-width="4.58333" stroke-miterlimit="8" fill="#FFF2CC" fill-rule="evenodd"/><text font-family="Meiryo UI,Meiryo UI_MSFontService,sans-serif" font-weight="400" font-size="64" transform="matrix(1 0 0 1 1988.25 1488)">Cron</text><path d="M2394.5 1383.5 2755.67 1383.5 2776.5 1404.33 2776.5 1508.5 2394.5 1508.5Z" stroke="#000000" stroke-width="4.58333" stroke-miterlimit="8" fill="#FFF2CC" fill-rule="evenodd"/><text font-family="Meiryo UI,Meiryo UI_MSFontService,sans-serif" font-weight="400" font-size="64" transform="matrix(1 0 0 1 2482.35 1476)">Action</text><path d="M1315.5 1923.5 1676.83 1923.5 1697.5 1944.17 1697.5 2047.5 1315.5 2047.5Z" stroke="#000000" stroke-width="4.58333" stroke-miterlimit="8" fill="#FFF2CC" fill-rule="evenodd"/><text font-family="Meiryo UI,Meiryo UI_MSFontService,sans-serif" font-weight="400" font-size="64" transform="matrix(1 0 0 1 1427.23 2016)">Mino</text><path d="M0.77293-0.84588 119.671 107.799 118.126 109.49-0.77293 0.84588ZM124.79 95.4021 135.816 124.103 106.24 115.703Z" transform="matrix(1 0 0 -1 2258 1644.1)"/><text font-family="Meiryo UI,Meiryo UI_MSFontService,sans-serif" font-weight="400" font-size="50" transform="matrix(1 0 0 1 2357.46 1642)">create</text><path d="M0.823531-0.7967 161.956 165.762 160.309 167.356-0.823531 0.7967ZM167.828 153.704 177.066 183.029 148.063 172.825Z" transform="matrix(1 0 0 -1 1699 1644.03)"/><text font-family="Meiryo UI,Meiryo UI_MSFontService,sans-serif" font-weight="400" font-size="50" transform="matrix(1 0 0 1 1721.53 1572)">create</text><path d="M1673.33 1148.9 2403.16 1370.27 2402.5 1372.46 1672.67 1151.1ZM2402.43 1356.88 2424.76 1378.02 2394.45 1383.19Z"/><text font-family="Meiryo UI,Meiryo UI_MSFontService,sans-serif" font-weight="400" font-size="50" transform="matrix(1 0 0 1 1977.58 1234)">create</text><path d="M1695.89 1578.71 1698.19 1569.84 1700.4 1570.41 1698.11 1579.29ZM1699.91 1563.18 1702.2 1554.31 1704.42 1554.88 1702.13 1563.76ZM1704.01 1547.66 1706.43 1538.82 1708.64 1539.42 1706.22 1548.26ZM1708.24 1532.18 1709.52 1527.49 1710.81 1523.35 1713 1524.02 1711.72 1528.15 1711.73 1528.11 1710.45 1532.79ZM1712.84 1516.78 1713.53 1514.52 1715.69 1508.04 1717.87 1508.77 1715.71 1515.24 1715.72 1515.21 1715.03 1517.45ZM1717.89 1501.48 1721.11 1492.9 1723.25 1493.7 1720.04 1502.29ZM1723.64 1486.46 1727.22 1478.02 1729.33 1478.91 1725.75 1487.35ZM1730.15 1471.74 1733.67 1464.41 1734.2 1463.45 1736.21 1464.55 1735.69 1465.49 1735.72 1465.43 1732.22 1472.73ZM1737.5 1457.42 1740.14 1452.61 1742.13 1449.43 1744.07 1450.65 1742.1 1453.8 1742.13 1453.74 1739.51 1458.52ZM1745.77 1443.61 1747.3 1441.17 1751.07 1436.03 1752.92 1437.39 1749.17 1442.49 1749.22 1442.42 1747.72 1444.82ZM1755.14 1430.49 1755.29 1430.29 1761.14 1423.44 1762.88 1424.93 1757.06 1431.74 1757.11 1431.68 1756.99 1431.84ZM1765.8 1418.27 1772.31 1411.81 1773.92 1413.44 1767.42 1419.9ZM1777.51 1407.19 1784.52 1401.28 1786 1403.03 1778.99 1408.94ZM1790.25 1397.29 1796.57 1392.91 1797.92 1392.12 1799.08 1394.09 1797.77 1394.86 1797.84 1394.82 1791.56 1399.17ZM1803.85 1388.64 1809.64 1385.24 1811.89 1384.1 1812.93 1386.15 1810.71 1387.27 1810.77 1387.24 1805.01 1390.62ZM1818.03 1381 1824.01 1377.96 1826.31 1376.95 1827.24 1379.04 1824.96 1380.05 1825.02 1380.02 1819.06 1383.04ZM1832.6 1374.17 1839.5 1371.13 1841.07 1370.52 1841.9 1372.66 1840.35 1373.26 1840.4 1373.24 1833.53 1376.27ZM1847.48 1368.03 1855.98 1364.73 1856.07 1364.71 1856.81 1366.88 1856.74 1366.9 1856.79 1366.88 1848.31 1370.17ZM1862.58 1362.5 1871.27 1359.57 1872 1361.74 1863.32 1364.67ZM1877.86 1357.5 1886.64 1354.84 1887.3 1357.04 1878.53 1359.69ZM1893.27 1352.9 1902.13 1350.55 1902.72 1352.77 1893.86 1355.11ZM1908.78 1348.79 1910.54 1348.32 1917.74 1346.68 1918.25 1348.92 1911.07 1350.55 1911.11 1350.55 1909.37 1351.01ZM1924.44 1345.15 1930.01 1343.88 1933.43 1343.19 1933.88 1345.44 1930.48 1346.12 1930.51 1346.12 1924.95 1347.38ZM1940.17 1341.84 1949.15 1340.03 1949.6 1342.27 1940.62 1344.08ZM1955.96 1338.84 1965 1337.31 1965.38 1339.56 1956.34 1341.1ZM1971.81 1336.19 1980.89 1334.92 1981.21 1337.19 1972.13 1338.46ZM1987.7 1333.96 1990.61 1333.55 1996.83 1332.85 1997.09 1335.13 1990.88 1335.83 1990.91 1335.82 1988.02 1336.23ZM2003.66 1332.08 2011.14 1331.23 2012.81 1331.1 2013 1333.38 2011.34 1333.52 2011.38 1333.51 2003.92 1334.36ZM2019.66 1330.53 2028.8 1329.78 2028.98 1332.06 2019.85 1332.81ZM2035.69 1329.32 2044.84 1328.81 2044.97 1331.1 2035.81 1331.61ZM2051.7 1328.43 2051.95 1328.42 2060.9 1328.19 2060.96 1330.49 2052.03 1330.71 2052.06 1330.71 2051.83 1330.72ZM2067.77 1328.02 2072.05 1327.92 2076.98 1327.95 2076.96 1330.24 2072.06 1330.21 2072.09 1330.21 2067.83 1330.31ZM2083.85 1327.99 2091.71 1328.04 2093.05 1328.09 2092.97 1330.38 2091.65 1330.33 2091.68 1330.33 2083.84 1330.28ZM2099.92 1328.33 2109.08 1328.66 2109 1330.95 2099.84 1330.62ZM2115.98 1329.03 2125.12 1329.6 2124.98 1331.89 2115.83 1331.32ZM2132.01 1330.07 2141.14 1330.85 2140.95 1333.13 2131.81 1332.35ZM2147.99 1331.44 2149.3 1331.55 2157.14 1332.45 2156.87 1334.73 2149.06 1333.83 2149.09 1333.83 2147.8 1333.72ZM2163.97 1333.24 2168.27 1333.74 2173.09 1334.41 2172.77 1336.68 2167.97 1336.01 2167.99 1336.01 2163.7 1335.52ZM2179.89 1335.36 2187.11 1336.37 2189 1336.69 2188.61 1338.95 2186.75 1338.63 2186.78 1338.63 2179.58 1337.63ZM2195.78 1337.84 2204.81 1339.38 2204.43 1341.64 2195.39 1340.1ZM2211.59 1340.68 2220.59 1342.46 2220.14 1344.71 2211.15 1342.93ZM2227.34 1343.87 2236.29 1345.87 2235.79 1348.11 2226.84 1346.1ZM2243 1347.37 2243.33 1347.45 2251.92 1349.62 2251.35 1351.84 2242.78 1349.67 2242.81 1349.68 2242.5 1349.61ZM2258.58 1351.31 2262.11 1352.21 2267.46 1353.73 2266.83 1355.93 2261.5 1354.41 2261.53 1354.42 2258.02 1353.53ZM2274.07 1355.61 2280.83 1357.53 2282.9 1358.17 2282.22 1360.36 2280.16 1359.72 2280.19 1359.73 2273.44 1357.81ZM2289.46 1360.22 2298.21 1362.96 2297.53 1365.14 2288.78 1362.41ZM2304.76 1365.16 2313.43 1368.15 2312.68 1370.31 2304.01 1367.33ZM2319.94 1370.42 2328.54 1373.59 2327.75 1375.74 2319.15 1372.57ZM2334.99 1375.97 2337.6 1376.93 2343.56 1379.31 2342.71 1381.44 2336.76 1379.06 2336.79 1379.08 2334.2 1378.12ZM2349.95 1381.85 2356.75 1384.57 2358.47 1385.3 2357.57 1387.41 2355.86 1386.68 2355.89 1386.69 2349.1 1383.98ZM2364.79 1388.01 2373.22 1391.62 2372.31 1393.73 2363.89 1390.12ZM2379.52 1394.41 2387.88 1398.18 2386.94 1400.26 2378.58 1396.49ZM2375.4 1375.11 2395 1402.65 2361.39 1406.16C2360.76 1406.23 2360.19 1405.77 2360.13 1405.14 2360.06 1404.51 2360.52 1403.95 2361.15 1403.88L2392.81 1400.57 2392 1402.38 2373.53 1376.44C2373.16 1375.93 2373.28 1375.21 2373.8 1374.85 2374.31 1374.48 2375.03 1374.6 2375.4 1375.11Z"/><text font-family="Meiryo UI,Meiryo UI_MSFontService,sans-serif" font-weight="400" font-size="50" transform="matrix(1 0 0 1 1684.61 1332)">watch/</text><text font-family="Meiryo UI,Meiryo UI_MSFontService,sans-serif" font-weight="400" font-size="50" transform="matrix(1 0 0 1 1854.2 1332)">list/delete</text><path d="M1507.15 1211.99 1507.25 1221.15 1504.96 1221.18 1504.85 1212.01ZM1507.34 1228.03 1507.45 1237.19 1505.15 1237.22 1505.04 1228.05ZM1507.53 1244.07 1507.64 1253.23 1505.34 1253.26 1505.24 1244.09ZM1507.72 1260.11 1507.83 1269.27 1505.54 1269.3 1505.43 1260.14ZM1507.91 1276.15 1508.02 1285.31 1505.73 1285.34 1505.62 1276.18ZM1508.1 1292.19 1508.21 1301.36 1505.92 1301.38 1505.81 1292.22ZM1508.29 1308.23 1508.4 1317.4 1506.11 1317.42 1506 1308.26ZM1508.48 1324.27 1508.59 1333.44 1506.3 1333.46 1506.19 1324.3ZM1508.67 1340.31 1508.78 1349.48 1506.49 1349.5 1506.38 1340.34ZM1508.86 1356.35 1508.97 1365.52 1506.68 1365.54 1506.57 1356.38ZM1521.6 1367.37 1508.18 1395.03 1494.1 1367.69Z"/><text font-family="Meiryo UI,Meiryo UI_MSFontService,sans-serif" font-weight="400" font-size="50" transform="matrix(1 0 0 1 1308.6 1270)">get/create/delete</text><path d="M1117.99 1643.42 1304.93 1964.84 1302.95 1965.99 1116.01 1644.58ZM1313.52 1954.54 1315.46 1985.22 1289.75 1968.36Z"/><path d="M1.08014-0.382389 168.324 472.034 166.163 472.799-1.08014 0.382389ZM178.676 463.508 174.891 494.02 152.752 472.685Z" transform="matrix(1 0 0 -1 1117 1644.02)"/><text font-family="Meiryo UI,Meiryo UI_MSFontService,sans-serif" font-weight="400" font-size="50" transform="matrix(1 0 0 1 1126.59 1875)">create</text><text font-family="Meiryo UI,Meiryo UI_MSFontService,sans-serif" font-weight="400" font-size="50" transform="matrix(1 0 0 1 1132.49 1319)">create</text><path d="M1.14576-0.0125131 1.24587 9.15361-1.04566 9.17863-1.14576 0.0125131ZM1.32095 16.0282 1.42105 25.1943-0.870476 25.2193-0.970581 16.0532ZM1.49613 32.0689 1.59624 41.235-0.695292 41.2601-0.795397 32.0939ZM1.67132 48.1096 1.77142 57.2757-0.520108 57.3008-0.620213 48.1346ZM1.8465 64.1503 1.94661 73.3164-0.344924 73.3415-0.445029 64.1754ZM2.02168 80.191 2.12179 89.3572-0.16974 89.3822-0.269845 80.2161ZM2.19687 96.2317 2.29697 105.398 0.00544361 105.423-0.0946615 96.2568ZM2.37205 112.272 2.47216 121.439 0.180628 121.464 0.0805225 112.298ZM2.54724 128.313 2.64734 137.479 0.355812 137.504 0.255706 128.338ZM2.72242 144.354 2.82253 153.52 0.530996 153.545 0.43089 144.379ZM2.8976 160.395 2.99771 169.561 0.706179 169.586 0.606074 160.42ZM15.624 171.514 2.1751 199.163-11.8744 171.815Z" transform="matrix(-1 0 0 1 1508.18 1724)"/><text font-family="Meiryo UI,Meiryo UI_MSFontService,sans-serif" font-weight="400" font-size="50" transform="matrix(1 0 0 1 1416.97 1831)">get</text><path d="M926 1520 926 1564.34" stroke="#000000" stroke-width="2.29167" stroke-miterlimit="8" fill="none" fill-rule="evenodd"/><path d="M1508 1520 1508 1564.34" stroke="#000000" stroke-width="2.29167" stroke-miterlimit="8" fill="none" fill-rule="evenodd"/><path d="M2067 1520 2067 1564.34" stroke="#000000" stroke-width="2.29167" stroke-miterlimit="8" fill="none" fill-rule="evenodd"/><path d="M1322.5 987.5 1692.67 987.5 1704.5 999.334 1704.5 1058.5 1322.5 1058.5Z" stroke="#000000" stroke-width="4.58333" stroke-miterlimit="8" fill="#FFF2CC" fill-rule="evenodd"/><text font-family="Meiryo UI,Meiryo UI_MSFontService,sans-serif" font-weight="400" font-size="55" transform="matrix(1 0 0 1 1412.6 1048)">Service</text><path d="M1322.5 1076.5 1687 1076.5 1704.5 1094 1704.5 1181.5 1322.5 1181.5Z" stroke="#000000" stroke-width="4.58333" stroke-miterlimit="8" fill="#FFF2CC" fill-rule="evenodd"/><text font-family="Meiryo UI,Meiryo UI_MSFontService,sans-serif" font-weight="400" font-size="55" transform="matrix(1 0 0 1 1416.92 1155)">Deploy</text><rect x="1288.5" y="961.5" width="466" height="251" stroke="#000000" stroke-width="4.58333" stroke-miterlimit="8" stroke-dasharray="18.3333 13.75" fill="none"/><text font-family="Meiryo UI,Meiryo UI_MSFontService,sans-serif" font-weight="400" font-size="50" transform="matrix(1 0 0 1 1771.75 1097)">t4s</text><text font-family="Meiryo UI,Meiryo UI_MSFontService,sans-serif" font-weight="400" font-size="50" transform="matrix(1 0 0 1 1847.38 1097)">-</text><text font-family="Meiryo UI,Meiryo UI_MSFontService,sans-serif" font-weight="400" font-size="50" transform="matrix(1 0 0 1 1869.72 1097)">a</text><text font-family="Meiryo UI,Meiryo UI_MSFontService,sans-serif" font-weight="400" font-size="50" transform="matrix(1 0 0 1 1898.94 1097)">pp</text><path d="M1508.15 827 1508.15 836.167 1505.85 836.167 1505.85 827ZM1508.15 843.042 1508.15 852.208 1505.85 852.208 1505.85 843.042ZM1508.15 859.083 1508.15 868.25 1505.85 868.25 1505.85 859.083ZM1508.15 875.125 1508.15 884.292 1505.85 884.292 1505.85 875.125ZM1508.15 891.167 1508.15 900.333 1505.85 900.333 1505.85 891.167ZM1508.15 907.208 1508.15 916.375 1505.85 916.375 1505.85 907.208ZM1508.15 923.25 1508.15 931.512 1505.85 931.512 1505.85 923.25ZM1520.75 926.929 1507 954.429 1493.25 926.929Z"/><g clip-path="url(#clip1)"><g clip-path="url(#clip2)"><g clip-path="url(#clip3)"><path d="M1576.4 805.333 1432.6 805.333 1432.6 712.292 1576.4 712.292 1576.4 805.333ZM1580.62 699.604 1428.37 699.604C1423.72 699.604 1419.92 703.41 1419.92 708.062L1419.92 809.563C1419.92 814.215 1423.72 818.021 1428.37 818.021L1487.58 818.021 1487.58 830.708 1466.44 830.708 1466.44 843.396 1542.56 843.396 1542.56 830.708 1521.42 830.708 1521.42 818.021 1580.62 818.021C1585.28 818.021 1589.08 814.215 1589.08 809.563L1589.08 708.062C1589.08 703.41 1585.28 699.604 1580.62 699.604Z"/></g></g></g><text font-family="Meiryo UI,Meiryo UI_MSFontService,sans-serif" font-weight="400" font-size="46" transform="matrix(1 0 0 1 1526.98 903)">GET/POST</text><text font-family="Meiryo UI,Meiryo UI_MSFontService,sans-serif" font-weight="400" font-size="48" transform="matrix(1 0 0 1 1386.45 688)">Web Client</text><path d="M2274.5 784.5 2397.17 784.5 2410.5 797.834 2410.5 864.5 2274.5 864.5Z" stroke="#000000" stroke-width="4.58333" stroke-miterlimit="8" fill="#FFF2CC" fill-rule="evenodd"/><rect x="2274.5" y="888.5" width="136" height="92.9998" stroke="#000000" stroke-width="4.58333" stroke-miterlimit="8" fill="#E2F0D9"/><text font-family="Meiryo UI,Meiryo UI_MSFontService,sans-serif" font-weight="400" font-size="48" transform="matrix(1 0 0 1 2427.05 843)">: CRD</text><text font-family="Meiryo UI,Meiryo UI_MSFontService,sans-serif" font-weight="400" font-size="48" transform="matrix(1 0 0 1 2426.76 940)">: Controller</text><path d="M0.779892-0.839465 184.628 169.962 183.068 171.64-0.779892 0.839465ZM189.849 157.608 200.637 186.399 171.131 177.755Z" transform="matrix(1 0 0 -1 1117 1643.4)"/><text font-family="Meiryo UI,Meiryo UI_MSFontService,sans-serif" font-weight="400" font-size="50" transform="matrix(1 0 0 1 1162.48 1551)">create</text></g></svg>
